# This file uses centimeters as units for non-parametric coordinates.

mtllib Bush_A.mtl
g default
v 18.009590 61.056858 -599.115356
v 15.952256 80.394081 -593.424622
v 20.632645 94.185799 -587.176331
v -5.045593 134.825195 -592.981140
v -0.884555 37.138851 -629.215332
v -34.104687 63.859810 -629.547607
v -36.348663 81.026703 -608.497620
v -25.450041 113.153603 -603.757324
vt 0.425383 0.306446
vt 0.710681 0.001525
vt 0.967667 0.339081
vt 0.966799 0.547478
vt 0.473994 0.576885
vt 1.029509 0.714265
vt 0.578472 0.871409
vt 0.791613 1.071201
vn -0.346778 -0.620893 0.703020
vn -0.444735 -0.544059 0.711485
vn -0.481136 -0.382748 0.788677
vn -0.346778 -0.620893 0.703020
vn -0.481136 -0.382748 0.788677
vn -0.338239 -0.384376 0.858982
vn -0.338239 -0.384376 0.858982
vn -0.271081 -0.506521 0.818506
vn -0.346778 -0.620893 0.703020
vn -0.271081 -0.506521 0.818506
vn -0.338239 -0.384376 0.858982
vn -0.323830 -0.173680 0.930037
vn -0.323830 -0.173680 0.930037
vn -0.359169 -0.058372 0.931445
vn -0.271081 -0.506521 0.818506
vn -0.359169 -0.058372 0.931445
vn -0.323830 -0.173680 0.930037
vn -0.374739 -0.105209 0.921142
s off
g polySurface65 polySurface1
usemtl Leaves_Branch_B169SG1
f 6/1/1 5/2/2 1/3/3
f 6/1/4 1/3/5 2/4/6
f 2/4/7 7/5/8 6/1/9
f 7/5/10 2/4/11 3/6/12
f 3/6/13 8/7/14 7/5/15
f 8/7/16 3/6/17 4/8/18
g default
v 1.242911 53.603283 -629.310364
v -5.945056 82.075478 -636.935730
v 7.863994 113.306664 -639.608398
v 25.986597 82.641579 -605.234436
v 21.109402 142.942169 -624.717468
v 42.392757 116.938362 -591.476318
v 43.187592 154.234619 -615.116150
vt 0.059165 0.204155
vt 0.270274 0.013960
vt 0.436246 0.397860
vt -0.003741 0.500705
vt 0.470337 0.767427
vt 0.032801 0.828414
vt 0.186752 1.005903
vn -0.693090 0.192439 0.694690
vn -0.704599 0.012138 0.709502
vn -0.754646 0.173613 0.632746
vn -0.754646 0.173613 0.632746
vn -0.760857 0.207307 0.614915
vn -0.693090 0.192439 0.694690
vn -0.760857 0.207307 0.614915
vn -0.754646 0.173613 0.632746
vn -0.754421 0.217409 0.619341
vn -0.754421 0.217409 0.619341
vn -0.719768 0.242442 0.650505
vn -0.760857 0.207307 0.614915
vn -0.719768 0.242442 0.650505
vn -0.754421 0.217409 0.619341
vn -0.541078 0.458416 0.705046
s off
g polySurface1 polySurface66
usemtl Leaves_Branch_B169SG1
f 10/9/19 9/10/20 12/11/21
f 12/11/22 11/12/23 10/9/24
f 11/12/25 12/11/26 14/13/27
f 14/13/28 13/14/29 11/12/30
f 13/14/31 14/13/32 15/15/33
g default
v 0.541256 94.565346 -626.904297
v 3.429364 116.556084 -644.906250
v 12.266459 145.584641 -644.033813
v -8.537093 126.170670 -603.901123
v 5.548783 174.588455 -635.000366
v -12.758235 159.671921 -594.166687
v 7.910925 189.448105 -615.622009
vt 0.059165 0.204155
vt 0.270274 0.013960
vt 0.436246 0.397860
vt -0.003741 0.500705
vt 0.470337 0.767427
vt 0.032801 0.828414
vt 0.186752 1.005903
vn -0.946707 0.111105 -0.302327
vn -0.961625 -0.086778 -0.260282
vn -0.922936 0.062081 -0.379915
vn -0.922936 0.062081 -0.379915
vn -0.910812 0.094076 -0.401959
vn -0.946707 0.111105 -0.302327
vn -0.910812 0.094076 -0.401959
vn -0.922936 0.062081 -0.379915
vn -0.911571 0.107726 -0.396779
vn -0.911571 0.107726 -0.396779
vn -0.921461 0.150303 -0.358215
vn -0.910812 0.094076 -0.401959
vn -0.921461 0.150303 -0.358215
vn -0.911571 0.107726 -0.396779
vn -0.869214 0.437807 -0.229765
s off
g polySurface1 polySurface67
usemtl Leaves_Branch_B169SG1
f 17/16/34 16/17/35 19/18/36
f 19/18/37 18/19/38 17/16/39
f 18/19/40 19/18/41 21/20/42
f 21/20/43 20/21/44 18/19/45
f 20/21/46 21/20/47 22/22/48
g default
v -1.028289 31.703690 -626.895569
v 16.139355 59.026176 -641.247070
v 9.187015 94.912819 -652.748169
v -35.143906 54.949883 -656.139893
v -7.597314 119.086563 -679.124573
v -53.683914 85.362808 -683.107056
v -33.923187 133.251465 -685.363525
vt 0.059165 0.204155
vt 0.270274 0.013960
vt 0.436246 0.397860
vt -0.003741 0.500705
vt 0.470337 0.767427
vt 0.032801 0.828414
vt 0.186752 1.005903
vn 0.284476 -0.406033 -0.868453
vn 0.269963 -0.575217 -0.772169
vn 0.367459 -0.420647 -0.829476
vn 0.367459 -0.420647 -0.829476
vn 0.384862 -0.385826 -0.838463
vn 0.284476 -0.406033 -0.868453
vn 0.384862 -0.385826 -0.838463
vn 0.367459 -0.420647 -0.829476
vn 0.377937 -0.376260 -0.845927
vn 0.377937 -0.376260 -0.845927
vn 0.334299 -0.353687 -0.873584
vn 0.384862 -0.385826 -0.838463
vn 0.334299 -0.353687 -0.873584
vn 0.377937 -0.376260 -0.845927
vn 0.169493 -0.116054 -0.978674
s off
g polySurface1 polySurface68
usemtl Leaves_Branch_B169SG1
f 24/23/49 23/24/50 26/25/51
f 26/25/52 25/26/53 24/23/54
f 25/26/55 26/25/56 28/27/57
f 28/27/58 27/28/59 25/26/60
f 27/28/61 28/27/62 29/29/63
g default
v 40.030010 41.103416 -625.311157
v 50.174950 58.473495 -615.518127
v 62.074169 70.476326 -612.772888
v 59.045414 109.621857 -581.491089
v -1.156743 22.938046 -628.751892
v -8.077922 48.511829 -593.232727
v 13.565128 61.892509 -577.853577
v 33.408001 91.108223 -575.343933
vt 0.425383 0.306446
vt 0.710681 0.001525
vt 0.967667 0.339081
vt 0.966799 0.547478
vt 0.473994 0.576885
vt 1.029509 0.714265
vt 0.578472 0.871409
vt 0.791613 1.071201
vn 0.304730 -0.799432 0.517734
vn 0.281766 -0.751779 0.596185
vn 0.342079 -0.662805 0.666087
vn 0.304730 -0.799432 0.517734
vn 0.342079 -0.662805 0.666087
vn 0.445125 -0.675324 0.588048
vn 0.445125 -0.675324 0.588048
vn 0.426219 -0.744767 0.513478
vn 0.304730 -0.799432 0.517734
vn 0.426219 -0.744767 0.513478
vn 0.445125 -0.675324 0.588048
vn 0.539907 -0.551983 0.635464
vn 0.539907 -0.551983 0.635464
vn 0.553357 -0.473867 0.685015
vn 0.426219 -0.744767 0.513478
vn 0.553357 -0.473867 0.685015
vn 0.539907 -0.551983 0.635464
vn 0.528218 -0.504760 0.682791
s off
g polySurface1 polySurface69
usemtl Leaves_Branch_B169SG1
f 35/30/64 34/31/65 30/32/66
f 35/30/67 30/32/68 31/33/69
f 31/33/70 36/34/71 35/30/72
f 36/34/73 31/33/74 32/35/75
f 32/35/76 37/36/77 36/34/78
f 37/36/79 32/35/80 33/37/81
g default
v 2.122158 20.145864 -633.463867
v 0.363057 24.427675 -604.506592
v -19.279137 37.678154 -582.919617
v -17.958803 57.009983 -628.279114
v -32.170807 65.035629 -569.404114
v -35.024727 85.912773 -611.651794
v -51.171337 81.717072 -572.028381
vt 0.059165 0.204155
vt 0.270274 0.013960
vt 0.436246 0.397860
vt -0.003741 0.500705
vt 0.470337 0.767427
vt 0.032801 0.828414
vt 0.186752 1.005903
vn 0.813816 0.562920 0.144310
vn 0.876975 0.480208 -0.017732
vn 0.856899 0.486114 0.171515
vn 0.856899 0.486114 0.171515
vn 0.847998 0.486534 0.210201
vn 0.813816 0.562920 0.144310
vn 0.847998 0.486534 0.210201
vn 0.856899 0.486114 0.171515
vn 0.840640 0.496948 0.215332
vn 0.840640 0.496948 0.215332
vn 0.811155 0.544218 0.214136
vn 0.847998 0.486534 0.210201
vn 0.811155 0.544218 0.214136
vn 0.840640 0.496948 0.215332
vn 0.599177 0.733100 0.321793
s off
g polySurface1 polySurface70
usemtl Leaves_Branch_B169SG1
f 39/38/82 38/39/83 41/40/84
f 41/40/85 40/41/86 39/38/87
f 40/41/88 41/40/89 43/42/90
f 43/42/91 42/43/92 40/41/93
f 42/43/94 43/42/95 44/44/96
g default
v -38.403282 108.106361 -640.884216
v -48.623848 127.814957 -643.650696
v -61.504475 139.027451 -644.901489
v -58.160652 189.106567 -645.900635
v 1.939440 91.794861 -628.860596
v 14.048147 133.397034 -638.143311
v -3.232256 153.025528 -652.288635
v -28.014545 177.967957 -648.128357
vt 0.425383 0.306446
vt 0.710681 0.001525
vt 0.967667 0.339081
vt 0.966799 0.547478
vt 0.473994 0.576885
vt 1.029509 0.714265
vt 0.578472 0.871409
vt 0.791613 1.071201
vn 0.140366 -0.347791 -0.927005
vn 0.176371 -0.262983 -0.948543
vn 0.123847 -0.150554 -0.980814
vn 0.140366 -0.347791 -0.927005
vn 0.123847 -0.150554 -0.980814
vn 0.007148 -0.207476 -0.978214
vn 0.007148 -0.207476 -0.978214
vn 0.015781 -0.307237 -0.951502
vn 0.140366 -0.347791 -0.927005
vn 0.015781 -0.307237 -0.951502
vn 0.007148 -0.207476 -0.978214
vn -0.093745 -0.080722 -0.992318
vn -0.093745 -0.080722 -0.992318
vn -0.109111 0.011472 -0.993963
vn 0.015781 -0.307237 -0.951502
vn -0.109111 0.011472 -0.993963
vn -0.093745 -0.080722 -0.992318
vn -0.079056 -0.014608 -0.996763
s off
g polySurface1 polySurface71
usemtl Leaves_Branch_B169SG1
f 50/45/97 49/46/98 45/47/99
f 50/45/100 45/47/101 46/48/102
f 46/48/103 51/49/104 50/45/105
f 51/49/106 46/48/107 47/50/108
f 47/50/109 52/51/110 51/49/111
f 52/51/112 47/50/113 48/52/114
g default
v 2.081980 -1.342605 -629.031738
v -1.047343 -1.332685 -630.838440
v -1.047342 -1.332685 -627.224976
v 0.328541 103.637070 -629.031738
vt 0.067500 0.000000
vt 0.097500 0.000000
vt 0.067500 1.000000
vt 0.007500 0.000000
vt 0.037500 0.000000
vt 0.007500 1.000000
vn 0.999861 0.016700 0.000000
vn -0.499836 0.021455 -0.865854
vn 0.003172 0.999995 0.000004
vn -0.499836 0.021455 -0.865854
vn -0.499836 0.021455 0.865854
vn 0.003172 0.999995 0.000004
vn -0.499836 0.021455 0.865854
vn 0.999861 0.016700 0.000000
vn 0.003172 0.999995 0.000004
s off
g polySurface1 polySurface72
usemtl Leaves_Branch_B169SG
f 53/53/115 54/54/116 56/55/117
f 54/56/118 55/57/119 56/58/120
f 55/57/121 53/53/122 56/55/123
