# This file uses centimeters as units for non-parametric coordinates.

mtllib Flowers_Yellow.mtl
g default
v 9.581278 19.197023 -285.131714
v 11.957591 25.238569 -288.065002
v 15.338751 21.448746 -282.961151
v 19.052120 23.192745 -288.054016
v 15.709915 22.077494 -293.584442
v 9.715625 19.545862 -291.675751
v 9.771253 22.359808 -285.992249
v 13.717375 23.903118 -284.504578
v 16.262484 25.098440 -287.995178
v 13.971769 24.334059 -291.785706
v 9.863329 22.598898 -290.477478
vt 0.382079 0.344672
vt 0.416766 0.159131
vt 0.455908 0.201537
vt 0.434066 0.319456
vt 0.602141 0.135112
vt 0.573842 0.186354
vt 0.681851 0.305962
vt 0.624872 0.295023
vt 0.549755 0.439746
vt 0.540933 0.380247
vt 0.525536 0.275851
vn -0.825521 0.240351 -0.510634
vn -0.841399 0.188359 0.506526
vn -0.823187 0.349306 0.447604
vn -0.823187 0.349306 0.447604
vn -0.811926 0.393841 -0.430889
vn -0.825521 0.240351 -0.510634
vn 0.036524 0.549164 0.834916
vn -0.062095 0.659296 0.749315
vn -0.823187 0.349306 0.447604
vn -0.823187 0.349306 0.447604
vn -0.841399 0.188359 0.506526
vn 0.036524 0.549164 0.834916
vn 0.563814 0.823318 0.065278
vn 0.420249 0.904293 0.075129
vn -0.062095 0.659296 0.749315
vn -0.062095 0.659296 0.749315
vn 0.036524 0.549164 0.834916
vn 0.563814 0.823318 0.065278
vn 0.062975 0.651293 -0.756209
vn -0.041246 0.743899 -0.667018
vn 0.420249 0.904293 0.075129
vn 0.420249 0.904293 0.075129
vn 0.563814 0.823318 0.065278
vn 0.062975 0.651293 -0.756209
vn -0.825521 0.240351 -0.510634
vn -0.811926 0.393841 -0.430889
vn -0.041246 0.743899 -0.667018
vn -0.041246 0.743899 -0.667018
vn 0.062975 0.651293 -0.756209
vn -0.825521 0.240351 -0.510634
vn -0.823187 0.349306 0.447604
vn -0.390731 0.919378 0.045538
vn -0.811926 0.393841 -0.430889
vn -0.062095 0.659296 0.749315
vn -0.390731 0.919378 0.045538
vn -0.823187 0.349306 0.447604
vn 0.420249 0.904293 0.075129
vn -0.390731 0.919378 0.045538
vn -0.062095 0.659296 0.749315
vn -0.041246 0.743899 -0.667018
vn -0.390731 0.919378 0.045538
vn 0.420249 0.904293 0.075129
vn -0.811926 0.393841 -0.430889
vn -0.390731 0.919378 0.045538
vn -0.041246 0.743899 -0.667018
s off
g polySurface547 polySurface1
usemtl lambert8SG
f 6/1/1 1/2/2 7/3/3
f 7/3/4 11/4/5 6/1/6
f 3/5/7 8/6/8 7/3/9
f 7/3/10 1/2/11 3/5/12
f 4/7/13 9/8/14 8/6/15
f 8/6/16 3/5/17 4/7/18
f 5/9/19 10/10/20 9/8/21
f 9/8/22 4/7/23 5/9/24
f 6/1/25 11/4/26 10/10/27
f 10/10/28 5/9/29 6/1/30
f 7/3/31 2/11/32 11/4/33
f 8/6/34 2/11/35 7/3/36
f 9/8/37 2/11/38 8/6/39
f 10/10/40 2/11/41 9/8/42
f 11/4/43 2/11/44 10/10/45
g default
v 11.606870 -1.977540 -286.689178
v 8.579668 13.950152 -294.121979
v 11.933747 24.684959 -288.501526
v 23.916973 18.712931 -278.219055
v 14.388939 12.132981 -287.106781
v 14.277922 16.085405 -292.458984
v 17.554983 21.854862 -279.033783
vt 0.674867 0.350538
vt 0.792469 0.017561
vt 0.832496 0.253164
vt 0.770787 0.465891
vt 0.757563 0.629192
vt 0.976920 0.594591
vt 0.976976 0.172348
vn -0.691000 0.310669 0.652690
vn -0.685499 0.126484 0.717002
vn -0.721554 0.071403 0.688666
vn -0.691000 0.310669 0.652690
vn -0.868908 -0.116506 0.481066
vn -0.721554 0.071403 0.688666
vn -0.752993 -0.097234 0.650805
vn -0.721554 0.071403 0.688666
vn -0.685499 0.126484 0.717002
vn -0.649488 -0.080764 0.756071
vn -0.752993 -0.097234 0.650805
s off
g polySurface1 polySurface548
usemtl lambert8SG
f 13/12/46 12/13/47 16/14/48 17/15/49
f 14/16/50 16/14/51 18/17/52
f 16/14/53 12/13/54 15/18/55 18/17/56
g default
v 2.715268 15.403030 -274.773041
v 2.103222 16.167625 -283.010620
v 2.700565 10.652190 -292.370819
v 6.030028 27.637030 -274.980957
v 2.963201 24.490768 -280.995728
v 0.812894 7.510345 -276.336060
v 1.784120 -1.245362 -282.953094
v 1.330339 16.097128 -290.966187
vt 0.654107 0.809315
vt 0.609167 0.651567
vt 0.495871 0.493766
vt 0.501167 0.906806
vt 0.390948 0.673717
vt 0.383541 0.867089
vt 0.645706 0.896290
vt 0.516040 0.913455
vn 0.987912 -0.135672 -0.074990
vn 0.993103 -0.091538 0.073257
vn 0.998173 -0.023554 0.055639
vn 0.996891 -0.071839 -0.032357
vn 0.996891 -0.071839 -0.032357
vn 0.998173 -0.023554 0.055639
vn 0.998324 0.043670 0.037978
vn 0.998324 0.043670 0.037978
vn 0.959903 -0.175739 -0.218407
vn 0.987912 -0.135672 -0.074990
vn 0.996891 -0.071839 -0.032357
vn 0.959903 -0.175739 -0.218407
s off
g polySurface1 polySurface549
usemtl lambert8SG
f 19/19/57 24/20/58 25/21/59 20/22/60
f 20/22/61 25/21/62 21/23/63 26/24/64
f 22/25/65 19/19/66 20/22/67 23/26/68
g default
v 8.381030 23.081408 -277.054535
v 3.427661 27.739573 -277.948792
v 7.333837 25.449024 -283.208466
v 0.779793 25.911379 -284.319916
v -2.478822 23.836721 -278.868042
v 2.385678 22.055267 -274.295654
v 6.852359 25.663971 -276.871765
v 6.134622 27.286715 -281.089600
v 1.642534 27.603607 -281.851379
v -0.590893 26.181656 -278.114716
v 2.743194 24.960661 -274.980835
vt 0.382079 0.344672
vt 0.416766 0.159131
vt 0.455908 0.201537
vt 0.434066 0.319456
vt 0.602141 0.135112
vt 0.573842 0.186354
vt 0.681851 0.305962
vt 0.624872 0.295023
vt 0.549755 0.439746
vt 0.540933 0.380247
vt 0.525536 0.275851
vn -0.138815 0.243463 0.959925
vn 0.733496 0.395026 0.553117
vn 0.628157 0.539308 0.560862
vn 0.628157 0.539308 0.560862
vn -0.105118 0.411552 0.905304
vn -0.138815 0.243463 0.959925
vn 0.576396 0.750062 -0.324307
vn 0.509980 0.839418 -0.187876
vn 0.628157 0.539308 0.560862
vn 0.628157 0.539308 0.560862
vn 0.733496 0.395026 0.553117
vn 0.576396 0.750062 -0.324307
vn -0.337824 0.827208 -0.449000
vn -0.280082 0.907870 -0.311970
vn 0.509980 0.839418 -0.187876
vn 0.509980 0.839418 -0.187876
vn 0.576396 0.750062 -0.324307
vn -0.337824 0.827208 -0.449000
vn -0.786759 0.533921 0.309738
vn -0.671346 0.645510 0.364158
vn -0.280082 0.907870 -0.311970
vn -0.280082 0.907870 -0.311970
vn -0.337824 0.827208 -0.449000
vn -0.786759 0.533921 0.309738
vn -0.138815 0.243463 0.959925
vn -0.105118 0.411552 0.905304
vn -0.671346 0.645510 0.364158
vn -0.671346 0.645510 0.364158
vn -0.786759 0.533921 0.309738
vn -0.138815 0.243463 0.959925
vn 0.628157 0.539308 0.560862
vn 0.014008 0.930138 0.366943
vn -0.105118 0.411552 0.905304
vn 0.509980 0.839418 -0.187876
vn 0.014008 0.930138 0.366943
vn 0.628157 0.539308 0.560862
vn -0.280082 0.907870 -0.311970
vn 0.014008 0.930138 0.366943
vn 0.509980 0.839418 -0.187876
vn -0.671346 0.645510 0.364158
vn 0.014008 0.930138 0.366943
vn -0.280082 0.907870 -0.311970
vn -0.105118 0.411552 0.905304
vn 0.014008 0.930138 0.366943
vn -0.671346 0.645510 0.364158
s off
g polySurface1 polySurface550
usemtl lambert8SG
f 32/27/69 27/28/70 33/29/71
f 33/29/72 37/30/73 32/27/74
f 29/31/75 34/32/76 33/29/77
f 33/29/78 27/28/79 29/31/80
f 30/33/81 35/34/82 34/32/83
f 34/32/84 29/31/85 30/33/86
f 31/35/87 36/36/88 35/34/89
f 35/34/90 30/33/91 31/35/92
f 32/27/93 37/30/94 36/36/95
f 36/36/96 31/35/97 32/27/98
f 33/29/99 28/37/100 37/30/101
f 34/32/102 28/37/103 33/29/104
f 35/34/105 28/37/106 34/32/107
f 36/36/108 28/37/109 35/34/110
f 37/30/111 28/37/112 36/36/113
g default
v 0.559847 14.265353 -260.253906
v 6.752203 15.169460 -265.096405
v 13.429155 10.018118 -271.146057
v 4.480180 24.445747 -255.038177
v 7.006583 22.486788 -261.383209
v -0.527319 7.636655 -264.385742
v 3.689153 -0.580708 -269.400024
v 12.503843 15.358818 -270.097961
vt 0.654107 0.791407
vt 0.627859 0.650023
vt 0.499388 0.486784
vt 0.520592 0.932805
vt 0.387963 0.651332
vt 0.413313 0.887727
vt 0.660478 0.925834
vt 0.544648 0.948665
vn 0.586763 -0.426001 0.688645
vn 0.476627 -0.386092 0.789784
vn 0.505438 -0.322701 0.800248
vn 0.568023 -0.367998 0.736157
vn 0.568023 -0.367998 0.736157
vn 0.505438 -0.322701 0.800248
vn 0.531420 -0.258557 0.806685
vn 0.531420 -0.258557 0.806685
vn 0.680988 -0.455193 0.573633
vn 0.586763 -0.426001 0.688645
vn 0.568023 -0.367998 0.736157
vn 0.680988 -0.455193 0.573633
s off
g polySurface1 polySurface551
usemtl lambert8SG
f 38/38/114 43/39/115 44/40/116 39/41/117
f 39/41/118 44/40/119 40/42/120 45/43/121
f 41/44/122 38/38/123 39/41/124 42/45/125
g default
v 6.816264 19.658113 -255.003723
v 5.646525 25.319500 -258.065430
v 11.423504 22.136950 -258.634583
v 8.887201 24.440968 -263.988098
v 2.590098 23.465866 -263.861237
v 1.329504 20.432280 -258.147430
v 6.286661 22.445103 -255.424530
v 9.444424 24.144075 -257.913086
v 7.706059 25.723230 -261.582336
v 3.390081 25.054907 -261.495392
v 2.526078 22.975708 -257.579193
vt 0.382079 0.344672
vt 0.416766 0.159131
vt 0.455908 0.201537
vt 0.434066 0.319456
vt 0.602141 0.135112
vt 0.573842 0.186354
vt 0.681851 0.305962
vt 0.624872 0.295023
vt 0.549755 0.439746
vt 0.540933 0.380247
vt 0.525536 0.275851
vn -0.816239 0.269887 0.510798
vn 0.025470 0.153978 0.987746
vn -0.014621 0.323216 0.946212
vn -0.014621 0.323216 0.946212
vn -0.724246 0.420305 0.546637
vn -0.816239 0.269887 0.510798
vn 0.712812 0.543504 0.443287
vn 0.580249 0.648116 0.493211
vn -0.014621 0.323216 0.946212
vn -0.014621 0.323216 0.946212
vn 0.025470 0.153978 0.987746
vn 0.712812 0.543504 0.443287
vn 0.319397 0.892377 -0.318823
vn 0.253857 0.951378 -0.174459
vn 0.580249 0.648116 0.493211
vn 0.580249 0.648116 0.493211
vn 0.712812 0.543504 0.443287
vn 0.319397 0.892377 -0.318823
vn -0.597612 0.744389 -0.297899
vn -0.558597 0.815901 -0.149247
vn 0.253857 0.951378 -0.174459
vn 0.253857 0.951378 -0.174459
vn 0.319397 0.892377 -0.318823
vn -0.597612 0.744389 -0.297899
vn -0.816239 0.269887 0.510798
vn -0.724246 0.420305 0.546637
vn -0.558597 0.815901 -0.149247
vn -0.558597 0.815901 -0.149247
vn -0.597612 0.744389 -0.297899
vn -0.816239 0.269887 0.510798
vn -0.014621 0.323216 0.946212
vn -0.131148 0.881371 0.453855
vn -0.724246 0.420305 0.546637
vn 0.580249 0.648116 0.493211
vn -0.131148 0.881371 0.453855
vn -0.014621 0.323216 0.946212
vn 0.253857 0.951378 -0.174459
vn -0.131148 0.881371 0.453855
vn 0.580249 0.648116 0.493211
vn -0.558597 0.815901 -0.149247
vn -0.131148 0.881371 0.453855
vn 0.253857 0.951378 -0.174459
vn -0.724246 0.420305 0.546637
vn -0.131148 0.881371 0.453855
vn -0.558597 0.815901 -0.149247
s off
g polySurface1 polySurface552
usemtl lambert8SG
f 51/46/126 46/47/127 52/48/128
f 52/48/129 56/49/130 51/46/131
f 48/50/132 53/51/133 52/48/134
f 52/48/135 46/47/136 48/50/137
f 49/52/138 54/53/139 53/51/140
f 53/51/141 48/50/142 49/52/143
f 50/54/144 55/55/145 54/53/146
f 54/53/147 49/52/148 50/54/149
f 51/46/150 56/49/151 55/55/152
f 55/55/153 50/54/154 51/46/155
f 52/48/156 47/56/157 56/49/158
f 53/51/159 47/56/160 52/48/161
f 54/53/162 47/56/163 53/51/164
f 55/55/165 47/56/166 54/53/167
f 56/49/168 47/56/169 55/55/170
g default
v 27.359255 17.720449 -282.103668
v 30.402056 23.422531 -279.107147
v 23.380831 21.837917 -278.917999
v 26.037746 23.404987 -273.151459
v 31.782402 20.298838 -272.559387
v 32.571262 16.710888 -278.259216
v 28.967403 20.564396 -281.778595
v 26.240625 23.386473 -279.595123
v 28.061657 24.460527 -275.642822
v 31.998993 22.331600 -275.237000
v 32.539673 19.872446 -279.143616
vt 0.382079 0.344672
vt 0.416766 0.159131
vt 0.455908 0.201537
vt 0.434066 0.319456
vt 0.602141 0.135112
vt 0.573842 0.186354
vt 0.681851 0.305962
vt 0.624872 0.295023
vt 0.549755 0.439746
vt 0.540933 0.380247
vt 0.525536 0.275851
vn 0.910874 -0.102710 -0.399699
vn 0.098876 0.057649 -0.993429
vn 0.188216 0.201486 -0.961238
vn 0.188216 0.201486 -0.961238
vn 0.890672 0.061986 -0.450401
vn 0.910874 -0.102710 -0.399699
vn -0.500060 0.701364 -0.507965
vn -0.345370 0.760479 -0.549901
vn 0.188216 0.201486 -0.961238
vn 0.188216 0.201486 -0.961238
vn 0.098876 0.057649 -0.993429
vn -0.500060 0.701364 -0.507965
vn -0.077474 0.939055 0.334923
vn 0.015740 0.978733 0.204533
vn -0.345370 0.760479 -0.549901
vn -0.345370 0.760479 -0.549901
vn -0.500060 0.701364 -0.507965
vn -0.077474 0.939055 0.334923
vn 0.776049 0.470506 0.419966
vn 0.789908 0.548330 0.274555
vn 0.015740 0.978733 0.204533
vn 0.015740 0.978733 0.204533
vn -0.077474 0.939055 0.334923
vn 0.776049 0.470506 0.419966
vn 0.910874 -0.102710 -0.399699
vn 0.890672 0.061986 -0.450401
vn 0.789908 0.548330 0.274555
vn 0.789908 0.548330 0.274555
vn 0.776049 0.470506 0.419966
vn 0.910874 -0.102710 -0.399699
vn 0.188216 0.201486 -0.961238
vn 0.465944 0.769103 -0.437467
vn 0.890672 0.061986 -0.450401
vn -0.345370 0.760479 -0.549901
vn 0.465944 0.769103 -0.437467
vn 0.188216 0.201486 -0.961238
vn 0.015740 0.978733 0.204533
vn 0.465944 0.769103 -0.437467
vn -0.345370 0.760479 -0.549901
vn 0.789908 0.548330 0.274555
vn 0.465944 0.769103 -0.437467
vn 0.015740 0.978733 0.204533
vn 0.890672 0.061986 -0.450401
vn 0.465944 0.769103 -0.437467
vn 0.789908 0.548330 0.274555
s off
g polySurface1 polySurface553
usemtl lambert8SG
f 62/57/171 57/58/172 63/59/173
f 63/59/174 67/60/175 62/57/176
f 59/61/177 64/62/178 63/59/179
f 63/59/180 57/58/181 59/61/182
f 60/63/183 65/64/184 64/62/185
f 64/62/186 59/61/187 60/63/188
f 61/65/189 66/66/190 65/64/191
f 65/64/192 60/63/193 61/65/194
f 62/57/195 67/60/196 66/66/197
f 66/66/198 61/65/199 62/57/200
f 63/59/201 58/67/202 67/60/203
f 64/62/204 58/67/205 63/59/206
f 65/64/207 58/67/208 64/62/209
f 66/66/210 58/67/211 65/64/212
f 67/60/213 58/67/214 66/66/215
g default
v 20.657784 -1.970966 -277.388824
v 33.276806 10.631615 -277.195618
v 30.579391 22.804010 -278.818054
v 14.283757 22.562803 -274.415070
v 24.123425 11.954356 -276.341980
v 29.692228 14.517161 -273.753479
v 19.257757 23.638750 -279.426270
vt 0.674867 0.350538
vt 0.792469 0.017561
vt 0.832496 0.253164
vt 0.770787 0.465891
vt 0.757563 0.629192
vt 0.976920 0.594591
vt 0.976976 0.172348
vn -0.055087 0.243676 -0.968291
vn -0.168570 0.085483 -0.981976
vn -0.145322 0.018075 -0.989219
vn -0.055087 0.243676 -0.968291
vn 0.034275 -0.241707 -0.969744
vn -0.145322 0.018075 -0.989219
vn -0.153837 -0.156857 -0.975567
vn -0.145322 0.018075 -0.989219
vn -0.168570 0.085483 -0.981976
vn -0.285478 -0.091505 -0.954007
vn -0.153837 -0.156857 -0.975567
s off
g polySurface1 polySurface554
usemtl lambert8SG
f 69/68/216 68/69/217 72/70/218 73/71/219
f 70/72/220 72/70/221 74/73/222
f 72/70/223 68/69/224 71/74/225 74/73/226
g default
v 12.607352 19.631187 -308.552216
v 12.532644 24.679525 -304.581665
v 7.249371 22.778591 -307.856628
v 6.454863 24.219681 -301.836487
v 11.315494 22.005302 -298.575775
v 15.185302 19.106512 -302.877014
v 13.162458 22.176876 -307.484161
v 9.490144 24.334080 -307.007416
v 8.945598 25.321791 -302.881256
v 12.277030 23.804075 -300.646362
v 14.929367 21.817266 -303.594421
vt 0.382079 0.344672
vt 0.416766 0.159131
vt 0.455908 0.201537
vt 0.434066 0.319456
vt 0.602141 0.135112
vt 0.573842 0.186354
vt 0.681851 0.305962
vt 0.624872 0.295023
vt 0.549755 0.439746
vt 0.540933 0.380247
vt 0.525536 0.275851
vn 0.988385 0.118498 0.095144
vn 0.582878 0.203007 -0.786792
vn 0.614114 0.358032 -0.703333
vn 0.614114 0.358032 -0.703333
vn 0.957387 0.286289 0.038065
vn 0.988385 0.118498 0.095144
vn -0.230084 0.700353 -0.675697
vn -0.080473 0.777399 -0.623838
vn 0.614114 0.358032 -0.703333
vn 0.614114 0.358032 -0.703333
vn 0.582878 0.203007 -0.786792
vn -0.230084 0.700353 -0.675697
vn -0.316589 0.922965 0.218875
vn -0.171136 0.973898 0.149112
vn -0.080473 0.777399 -0.623838
vn -0.080473 0.777399 -0.623838
vn -0.230084 0.700353 -0.675697
vn -0.316589 0.922965 0.218875
vn 0.404902 0.588812 0.699539
vn 0.471407 0.673902 0.568886
vn -0.171136 0.973898 0.149112
vn -0.171136 0.973898 0.149112
vn -0.316589 0.922965 0.218875
vn 0.404902 0.588812 0.699539
vn 0.988385 0.118498 0.095144
vn 0.957387 0.286289 0.038065
vn 0.471407 0.673902 0.568886
vn 0.471407 0.673902 0.568886
vn 0.404902 0.588812 0.699539
vn 0.988385 0.118498 0.095144
vn 0.614114 0.358032 -0.703333
vn 0.495414 0.855564 -0.150249
vn 0.957387 0.286289 0.038065
vn -0.080473 0.777399 -0.623838
vn 0.495414 0.855564 -0.150249
vn 0.614114 0.358032 -0.703333
vn -0.171136 0.973898 0.149112
vn 0.495414 0.855564 -0.150249
vn -0.080473 0.777399 -0.623838
vn 0.471407 0.673902 0.568886
vn 0.495414 0.855564 -0.150249
vn -0.171136 0.973898 0.149112
vn 0.957387 0.286289 0.038065
vn 0.495414 0.855564 -0.150249
vn 0.471407 0.673902 0.568886
s off
g polySurface1 polySurface555
usemtl lambert8SG
f 80/75/227 75/76/228 81/77/229
f 81/77/230 85/78/231 80/75/232
f 77/79/233 82/80/234 81/77/235
f 81/77/236 75/76/237 77/79/238
f 78/81/239 83/82/240 82/80/241
f 82/80/242 77/79/243 78/81/244
f 79/83/245 84/84/246 83/82/247
f 83/82/248 78/81/249 79/83/250
f 80/75/251 85/78/252 84/84/253
f 84/84/254 79/83/255 80/75/256
f 81/77/257 76/85/258 85/78/259
f 82/80/260 76/85/261 81/77/262
f 83/82/263 76/85/264 82/80/265
f 84/84/266 76/85/267 83/82/268
f 85/78/269 76/85/270 84/84/271
g default
v 13.234190 13.713997 -300.014893
v 5.719672 15.617278 -299.492218
v -3.706691 11.753777 -299.237579
v 14.589334 24.525021 -304.731598
v 8.676637 22.863132 -301.423309
v 10.781107 6.939132 -297.178802
v 3.453472 -0.318978 -296.854156
v -1.640928 16.737503 -298.710114
vt 0.654107 0.809315
vt 0.609167 0.651567
vt 0.495871 0.493766
vt 0.501167 0.906806
vt 0.390948 0.673717
vt 0.383541 0.867089
vt 0.645706 0.896290
vt 0.516040 0.913455
vn -0.121491 -0.261300 -0.957581
vn 0.031330 -0.240357 -0.970179
vn 0.023461 -0.171936 -0.984829
vn -0.070454 -0.206252 -0.975959
vn -0.070454 -0.206252 -0.975959
vn 0.023461 -0.171936 -0.984829
vn 0.015580 -0.103559 -0.994501
vn 0.015580 -0.103559 -0.994501
vn -0.268309 -0.275744 -0.923025
vn -0.121491 -0.261300 -0.957581
vn -0.070454 -0.206252 -0.975959
vn -0.268309 -0.275744 -0.923025
s off
g polySurface1 polySurface556
usemtl lambert8SG
f 86/86/272 91/87/273 92/88/274 87/89/275
f 87/89/276 92/88/277 88/90/278 93/91/279
f 89/92/280 86/86/281 87/89/282 90/93/283
g default
v -11.223227 16.936806 -298.928711
v -10.018168 23.434219 -298.007355
v -12.272718 19.158108 -293.305420
v -7.557662 22.670855 -291.589844
v -3.402038 22.749508 -296.111176
v -5.771140 19.101374 -300.738708
v -11.434517 19.993782 -299.185547
v -12.153828 21.516243 -295.331421
v -8.922167 23.923849 -294.155548
v -6.073939 23.977760 -297.254456
v -7.697700 21.477358 -300.426117
vt 0.382079 0.344672
vt 0.416766 0.159131
vt 0.455908 0.201537
vt 0.434066 0.319456
vt 0.602141 0.135112
vt 0.573842 0.186354
vt 0.681851 0.305962
vt 0.624872 0.295023
vt 0.549755 0.439746
vt 0.540933 0.380247
vt 0.525536 0.275851
vn 0.152805 0.249701 -0.956190
vn -0.751385 -0.106646 -0.651189
vn -0.746867 0.065328 -0.661757
vn -0.746867 0.065328 -0.661757
vn 0.033503 0.372364 -0.927482
vn 0.152805 0.249701 -0.956190
vn -0.925740 0.272204 0.262508
vn -0.912435 0.386025 0.135818
vn -0.746867 0.065328 -0.661757
vn -0.746867 0.065328 -0.661757
vn -0.751385 -0.106646 -0.651189
vn -0.925740 0.272204 0.262508
vn -0.177807 0.843663 0.506574
vn -0.253241 0.894378 0.368724
vn -0.912435 0.386025 0.135818
vn -0.912435 0.386025 0.135818
vn -0.925740 0.272204 0.262508
vn -0.177807 0.843663 0.506574
vn 0.482182 0.849457 -0.214296
vn 0.342178 0.893507 -0.290792
vn -0.253241 0.894378 0.368724
vn -0.253241 0.894378 0.368724
vn -0.177807 0.843663 0.506574
vn 0.482182 0.849457 -0.214296
vn 0.152805 0.249701 -0.956190
vn 0.033503 0.372364 -0.927482
vn 0.342178 0.893507 -0.290792
vn 0.342178 0.893507 -0.290792
vn 0.482182 0.849457 -0.214296
vn 0.152805 0.249701 -0.956190
vn -0.746867 0.065328 -0.661757
vn -0.455105 0.790173 -0.410496
vn 0.033503 0.372364 -0.927482
vn -0.912435 0.386025 0.135818
vn -0.455105 0.790173 -0.410496
vn -0.746867 0.065328 -0.661757
vn -0.253241 0.894378 0.368724
vn -0.455105 0.790173 -0.410496
vn -0.912435 0.386025 0.135818
vn 0.342178 0.893507 -0.290792
vn -0.455105 0.790173 -0.410496
vn -0.253241 0.894378 0.368724
vn 0.033503 0.372364 -0.927482
vn -0.455105 0.790173 -0.410496
vn 0.342178 0.893507 -0.290792
s off
g polySurface1 polySurface557
usemtl lambert8SG
f 99/94/284 94/95/285 100/96/286
f 100/96/287 104/97/288 99/94/289
f 96/98/290 101/99/291 100/96/292
f 100/96/293 94/95/294 96/98/295
f 97/100/296 102/101/297 101/99/298
f 101/99/299 96/98/300 97/100/301
f 98/102/302 103/103/303 102/101/304
f 102/101/305 97/100/306 98/102/307
f 99/94/308 104/97/309 103/103/310
f 103/103/311 98/102/312 99/94/313
f 100/96/314 95/104/315 104/97/316
f 101/99/317 95/104/318 100/96/319
f 102/101/320 95/104/321 101/99/322
f 103/103/323 95/104/324 102/101/325
f 104/97/326 95/104/327 103/103/328
g default
v -2.776894 -0.989804 -296.416504
v -2.252247 14.689615 -302.153107
v -9.482929 23.065355 -298.125397
v -13.209170 16.676340 -284.151093
v -6.109722 11.972279 -294.845398
v -2.852072 16.942068 -296.724182
v -15.143947 18.739059 -290.212982
vt 0.674867 0.350538
vt 0.792469 0.017561
vt 0.832496 0.253164
vt 0.770787 0.465891
vt 0.757563 0.629192
vt 0.976920 0.594591
vt 0.976976 0.172348
vn -0.882479 -0.011767 -0.470204
vn -0.877578 -0.203504 -0.434100
vn -0.843612 -0.252499 -0.473881
vn -0.882479 -0.011767 -0.470204
vn -0.634424 -0.390212 -0.667263
vn -0.843612 -0.252499 -0.473881
vn -0.761946 -0.404772 -0.505568
vn -0.843612 -0.252499 -0.473881
vn -0.877578 -0.203504 -0.434100
vn -0.833820 -0.404587 -0.375570
vn -0.761946 -0.404772 -0.505568
s off
g polySurface1 polySurface558
usemtl lambert8SG
f 106/105/329 105/106/330 109/107/331 110/108/332
f 107/109/333 109/107/334 111/110/335
f 109/107/336 105/106/337 108/111/338 111/110/339
g default
v -16.792841 18.630428 -276.320129
v -14.679515 25.134647 -278.315277
v -11.590997 21.112312 -273.203888
v -7.473303 23.708179 -277.571228
v -9.991331 22.921974 -283.574677
v -15.896801 19.699102 -282.724762
v -16.809853 21.872707 -276.837067
v -13.244553 23.573769 -274.701202
v -10.422323 25.352953 -277.694550
v -12.148155 24.814096 -281.809265
v -16.195717 22.605165 -281.226746
vt 0.382079 0.344672
vt 0.416766 0.159131
vt 0.455908 0.201537
vt 0.434066 0.319456
vt 0.602141 0.135112
vt 0.573842 0.186354
vt 0.681851 0.305962
vt 0.624872 0.295023
vt 0.549755 0.439746
vt 0.540933 0.380247
vt 0.525536 0.275851
vn -0.776670 0.223662 -0.588863
vn -0.911219 0.060187 0.407501
vn -0.901801 0.227548 0.367391
vn -0.901801 0.227548 0.367391
vn -0.787981 0.368165 -0.493499
vn -0.776670 0.223662 -0.588863
vn -0.119414 0.456202 0.881828
vn -0.217167 0.566238 0.795118
vn -0.901801 0.227548 0.367391
vn -0.901801 0.227548 0.367391
vn -0.911219 0.060187 0.407501
vn -0.119414 0.456202 0.881828
vn 0.468356 0.856120 0.218406
vn 0.317431 0.923088 0.217132
vn -0.217167 0.566238 0.795118
vn -0.217167 0.566238 0.795118
vn -0.119414 0.456202 0.881828
vn 0.468356 0.856120 0.218406
vn 0.090617 0.732660 -0.674535
vn -0.032255 0.805852 -0.591238
vn 0.317431 0.923088 0.217132
vn 0.317431 0.923088 0.217132
vn 0.468356 0.856120 0.218406
vn 0.090617 0.732660 -0.674535
vn -0.776670 0.223662 -0.588863
vn -0.787981 0.368165 -0.493499
vn -0.032255 0.805852 -0.591238
vn -0.032255 0.805852 -0.591238
vn 0.090617 0.732660 -0.674535
vn -0.776670 0.223662 -0.588863
vn -0.901801 0.227548 0.367391
vn -0.481453 0.872544 0.082885
vn -0.787981 0.368165 -0.493499
vn -0.217167 0.566238 0.795118
vn -0.481453 0.872544 0.082885
vn -0.901801 0.227548 0.367391
vn 0.317431 0.923088 0.217132
vn -0.481453 0.872544 0.082885
vn -0.217167 0.566238 0.795118
vn -0.032255 0.805852 -0.591238
vn -0.481453 0.872544 0.082885
vn 0.317431 0.923088 0.217132
vn -0.787981 0.368165 -0.493499
vn -0.481453 0.872544 0.082885
vn -0.032255 0.805852 -0.591238
s off
g polySurface1 polySurface559
usemtl lambert8SG
f 117/112/340 112/113/341 118/114/342
f 118/114/343 122/115/344 117/112/345
f 114/116/346 119/117/347 118/114/348
f 118/114/349 112/113/350 114/116/351
f 115/118/352 120/119/353 119/117/354
f 119/117/355 114/116/356 115/118/357
f 116/120/358 121/121/359 120/119/360
f 120/119/361 115/118/362 116/120/363
f 117/112/364 122/115/365 121/121/366
f 121/121/367 116/120/368 117/112/369
f 118/114/370 113/122/371 122/115/372
f 119/117/373 113/122/374 118/114/375
f 120/119/376 113/122/377 119/117/378
f 121/121/379 113/122/380 120/119/381
f 122/115/382 113/122/383 121/121/384
g default
v -12.530084 -2.000946 -279.646851
v -16.173040 14.326660 -285.830750
v -14.595664 24.631777 -278.802795
v -3.428317 18.613531 -267.664398
v -11.112224 12.255945 -278.323212
v -10.956439 16.743374 -283.234283
v -9.920319 21.275120 -268.998688
vt 0.674867 0.350538
vt 0.792469 0.017561
vt 0.832496 0.253164
vt 0.770787 0.465891
vt 0.757563 0.629192
vt 0.976920 0.594591
vt 0.976976 0.172348
vn -0.792451 0.178172 0.583333
vn -0.776830 -0.010784 0.629619
vn -0.803598 -0.065311 0.591579
vn -0.792450 0.178172 0.583333
vn -0.905453 -0.241328 0.349165
vn -0.803598 -0.065311 0.591579
vn -0.813533 -0.230883 0.533721
vn -0.803598 -0.065311 0.591579
vn -0.776830 -0.010784 0.629619
vn -0.725740 -0.217251 0.652767
vn -0.813533 -0.230883 0.533721
s off
g polySurface1 polySurface560
usemtl lambert8SG
f 124/123/385 123/124/386 127/125/387 128/126/388
f 125/127/389 127/125/390 129/128/391
f 127/125/392 123/124/393 126/129/394 129/128/395
