# This file uses centimeters as units for non-parametric coordinates.

mtllib Rock_A.mtl
g default
v -23.046625 -10.975867 -40.014534
v -7.387168 -11.007023 -44.512630
v 12.026333 -11.122601 -51.407047
v 35.500931 -11.100249 -49.982738
v 56.196545 -11.086497 -47.736790
v 63.556580 -8.449501 -33.773823
v -25.971893 7.690090 -44.024368
v -14.203356 10.826753 -56.839420
v 10.998995 14.201830 -56.722122
v 34.208225 10.813205 -45.995190
v 52.814663 9.948509 -42.606228
v 60.716015 7.309742 -31.153906
v -23.345850 25.771223 -41.424099
v -11.999424 32.939308 -52.836094
v 10.549569 38.234524 -57.563801
v 33.713356 31.778124 -47.204945
v 52.407871 28.969872 -42.447117
v 60.939743 22.580366 -30.705166
v -21.731571 43.049271 -39.956764
v -5.978228 49.174221 -44.922173
v 13.354329 54.925362 -50.702797
v 34.826496 54.069004 -51.097622
v 49.220974 42.749432 -37.734692
v 59.794888 36.367771 -31.379725
v -21.777246 -10.922614 46.527508
v -12.489846 -12.468705 58.654697
v 7.301241 -15.863320 68.721436
v 29.714458 -15.043252 61.491444
v 49.984791 -13.184421 58.305878
v 62.047565 -12.234606 50.003181
v -23.556177 5.740423 48.427837
v -9.331055 7.206945 54.924923
v 7.358886 7.502455 64.817223
v 30.034910 6.680366 60.876785
v 50.241024 7.344121 58.430611
v 58.789391 4.528825 46.633240
v -21.041204 21.372082 45.945751
v -6.883447 24.662838 51.552303
v 9.614760 27.609371 58.744926
v 30.402828 25.628880 54.672794
v 45.484550 22.095728 49.674507
v 58.540909 19.761726 45.644127
v -19.706022 36.094082 44.084053
v -6.740075 40.447510 47.511368
v 10.254948 41.792347 50.210522
v 28.041382 37.626114 46.070454
v 42.569233 32.929882 43.122654
v 53.967781 30.530048 39.631447
v 74.195992 -9.201336 -22.796913
v 69.322411 10.240157 -20.350939
v 68.410263 28.251017 -20.118940
v 64.478752 41.048248 -18.396254
v 53.200970 47.421291 -23.936266
v 35.133163 56.778664 -32.015697
v 12.406502 56.429707 -29.792164
v -5.779231 48.801662 -24.860687
v -22.052254 43.941883 -22.299623
v -27.584536 28.548861 -24.794651
v -29.000381 9.270093 -26.438326
v -29.944525 -11.601252 -26.207741
v 84.048874 -13.630157 -4.520234
v 81.485008 11.576138 -4.316301
v 80.567177 34.342899 -4.838819
v 73.400078 50.004738 -2.696555
v 58.301552 58.223213 -7.007694
v 34.097511 53.782948 -9.114799
v 12.667493 49.325996 -6.488718
v -8.381234 49.650345 -5.236206
v -26.470346 47.773991 -4.096895
v -35.745342 33.103573 -6.256454
v -35.904469 9.449468 -6.660504
v -35.755112 -12.995922 -5.604068
v 83.987343 -15.428984 21.146835
v 80.835762 10.298436 20.848518
v 80.805351 33.444485 19.000832
v 65.833298 42.403992 15.720438
v 54.126652 52.775928 16.251837
v 32.798954 54.449863 14.251519
v 9.949406 50.321583 14.960835
v -9.515526 48.510262 15.206462
v -30.977821 50.262062 15.768627
v -36.039017 32.598038 16.396736
v -40.369030 10.070673 16.379078
v -41.327496 -14.204349 18.378250
v 71.855949 -14.623577 39.492672
v 66.272263 5.289105 35.226837
v 66.250473 23.734276 35.337399
v 62.688496 39.251366 32.058578
v 47.847279 44.584293 33.971329
v 29.518044 49.797016 35.160881
v 7.923168 49.647469 36.484184
v -11.444938 46.246563 35.087669
v -31.019867 47.557243 35.415199
v -33.398319 29.700850 37.040813
v -35.609364 8.327132 37.486107
v -30.258684 -12.478013 35.214825
vn -0.636076 -0.440636 -0.633441
vn -0.410260 -0.120511 -0.903971
vn -0.306464 -0.501817 -0.808863
vn -0.410260 -0.120511 -0.903971
vn -0.636076 -0.440636 -0.633441
vn -0.830630 -0.077936 -0.551344
vn -0.306464 -0.501817 -0.808863
vn 0.115180 -0.083173 -0.989857
vn -0.062612 -0.321444 -0.944856
vn 0.115180 -0.083173 -0.989857
vn -0.306464 -0.501817 -0.808863
vn -0.410260 -0.120511 -0.903971
vn -0.062612 -0.321444 -0.944856
vn 0.252116 0.036583 -0.967005
vn 0.149008 -0.141020 -0.978729
vn 0.252116 0.036583 -0.967005
vn -0.062612 -0.321444 -0.944856
vn 0.115180 -0.083173 -0.989857
vn 0.149008 -0.141020 -0.978729
vn 0.548943 0.125234 -0.826425
vn 0.516547 -0.051836 -0.854688
vn 0.548943 0.125234 -0.826425
vn 0.149008 -0.141020 -0.978729
vn 0.252116 0.036583 -0.967005
vn 0.810743 0.032476 -0.584500
vn 0.548943 0.125234 -0.826425
vn 0.793808 0.150056 -0.589366
vn 0.548943 0.125234 -0.826425
vn 0.810743 0.032476 -0.584500
vn 0.516547 -0.051836 -0.854688
vn -0.867990 0.218607 -0.445875
vn -0.410260 -0.120511 -0.903971
vn -0.830630 -0.077936 -0.551344
vn -0.410260 -0.120511 -0.903971
vn -0.867990 0.218607 -0.445875
vn -0.453629 0.265330 -0.850777
vn 0.115180 -0.083173 -0.989857
vn -0.453629 0.265330 -0.850777
vn 0.020058 0.174979 -0.984368
vn -0.453629 0.265330 -0.850777
vn 0.115180 -0.083173 -0.989857
vn -0.410260 -0.120511 -0.903971
vn 0.115180 -0.083173 -0.989857
vn 0.353486 0.009426 -0.935392
vn 0.252116 0.036583 -0.967005
vn 0.353486 0.009426 -0.935392
vn 0.115180 -0.083173 -0.989857
vn 0.020058 0.174979 -0.984368
vn 0.252116 0.036583 -0.967005
vn 0.578564 0.074554 -0.812222
vn 0.548943 0.125234 -0.826425
vn 0.578564 0.074554 -0.812222
vn 0.252116 0.036583 -0.967005
vn 0.353486 0.009426 -0.935392
vn 0.793808 0.150056 -0.589366
vn 0.548943 0.125234 -0.826425
vn 0.805679 0.085676 -0.586123
vn 0.805679 0.085676 -0.586123
vn 0.548943 0.125234 -0.826425
vn 0.578564 0.074554 -0.812222
vn -0.721909 0.590561 -0.360675
vn -0.453629 0.265330 -0.850777
vn -0.867990 0.218607 -0.445875
vn -0.453629 0.265330 -0.850777
vn -0.721909 0.590561 -0.360675
vn -0.433509 0.775006 -0.459822
vn -0.433509 0.775006 -0.459822
vn 0.020058 0.174979 -0.984368
vn -0.453629 0.265330 -0.850777
vn 0.020058 0.174979 -0.984368
vn -0.433509 0.775006 -0.459822
vn -0.102563 0.764908 -0.635922
vn 0.020058 0.174979 -0.984368
vn 0.373648 0.610989 -0.697911
vn 0.353486 0.009426 -0.935392
vn 0.373648 0.610989 -0.697911
vn 0.020058 0.174979 -0.984368
vn -0.102563 0.764908 -0.635922
vn 0.353486 0.009426 -0.935392
vn 0.664476 0.453528 -0.593957
vn 0.578564 0.074554 -0.812222
vn 0.353486 0.009426 -0.935392
vn 0.373648 0.610989 -0.697911
vn 0.664476 0.453528 -0.593957
vn 0.805679 0.085676 -0.586123
vn 0.578564 0.074554 -0.812222
vn 0.753171 0.368160 -0.545152
vn 0.753171 0.368160 -0.545152
vn 0.578564 0.074554 -0.812222
vn 0.664476 0.453528 -0.593957
vn -0.700011 -0.235480 0.674192
vn -0.486466 0.189474 0.852907
vn -0.608494 0.039867 0.792556
vn -0.486466 0.189474 0.852907
vn -0.700011 -0.235480 0.674192
vn -0.582321 -0.168000 0.795411
vn -0.486466 0.189474 0.852907
vn -0.207931 -0.113285 0.971561
vn -0.139030 0.221026 0.965307
vn -0.207931 -0.113285 0.971561
vn -0.486466 0.189474 0.852907
vn -0.582321 -0.168000 0.795411
vn -0.139030 0.221026 0.965307
vn 0.153775 0.031905 0.987591
vn 0.199125 0.200171 0.959313
vn 0.153775 0.031905 0.987591
vn -0.139030 0.221026 0.965307
vn -0.207931 -0.113285 0.971561
vn 0.199125 0.200171 0.959313
vn 0.422249 0.079739 0.902966
vn 0.434402 0.229485 0.870995
vn 0.422249 0.079739 0.902966
vn 0.199125 0.200171 0.959313
vn 0.153775 0.031905 0.987591
vn 0.434402 0.229485 0.870995
vn 0.422249 0.079739 0.902966
vn 0.731622 0.196766 0.652696
vn 0.731622 0.196766 0.652696
vn 0.422249 0.079739 0.902966
vn 0.752950 0.067643 0.654592
vn -0.476346 0.176528 0.861355
vn -0.486466 0.189474 0.852907
vn -0.388409 0.265210 0.882498
vn -0.486466 0.189474 0.852907
vn -0.476346 0.176528 0.861355
vn -0.608494 0.039867 0.792556
vn -0.388409 0.265210 0.882498
vn -0.139030 0.221026 0.965307
vn -0.074393 0.388554 0.918418
vn -0.139030 0.221026 0.965307
vn -0.388409 0.265210 0.882498
vn -0.486466 0.189474 0.852907
vn -0.074393 0.388554 0.918418
vn -0.139030 0.221026 0.965307
vn 0.262213 0.460711 0.847933
vn 0.262213 0.460711 0.847933
vn -0.139030 0.221026 0.965307
vn 0.199125 0.200171 0.959313
vn 0.262213 0.460711 0.847933
vn 0.199125 0.200171 0.959313
vn 0.370643 0.481324 0.794324
vn 0.370643 0.481324 0.794324
vn 0.199125 0.200171 0.959313
vn 0.434402 0.229485 0.870995
vn 0.370643 0.481324 0.794324
vn 0.434402 0.229485 0.870995
vn 0.623063 0.310650 0.717836
vn 0.623063 0.310650 0.717836
vn 0.434402 0.229485 0.870995
vn 0.731622 0.196766 0.652696
vn -0.354426 0.370204 0.858680
vn -0.388409 0.265210 0.882498
vn -0.252943 0.592644 0.764718
vn -0.388409 0.265210 0.882498
vn -0.354426 0.370204 0.858680
vn -0.476346 0.176528 0.861355
vn -0.252943 0.592644 0.764718
vn -0.074393 0.388554 0.918418
vn -0.006198 0.667009 0.745024
vn -0.074393 0.388554 0.918418
vn -0.252943 0.592644 0.764718
vn -0.388409 0.265210 0.882498
vn 0.258944 0.620633 0.740110
vn -0.006198 0.667009 0.745024
vn -0.074393 0.388554 0.918418
vn 0.258944 0.620633 0.740110
vn -0.074393 0.388554 0.918418
vn 0.262213 0.460711 0.847933
vn 0.258944 0.620633 0.740110
vn 0.262213 0.460711 0.847933
vn 0.320316 0.550487 0.770949
vn 0.320316 0.550487 0.770949
vn 0.262213 0.460711 0.847933
vn 0.370643 0.481324 0.794324
vn 0.320316 0.550487 0.770949
vn 0.370643 0.481324 0.794324
vn 0.384847 0.482929 0.786557
vn 0.384847 0.482929 0.786557
vn 0.370643 0.481324 0.794324
vn 0.623063 0.310650 0.717836
vn 0.848187 -0.076090 -0.524203
vn 0.793808 0.150056 -0.589366
vn 0.789264 0.115889 -0.603019
vn 0.793808 0.150056 -0.589366
vn 0.848187 -0.076090 -0.524203
vn 0.810743 0.032476 -0.584500
vn 0.789264 0.115889 -0.603019
vn 0.805679 0.085676 -0.586123
vn 0.790213 0.147251 -0.594879
vn 0.805679 0.085676 -0.586123
vn 0.789264 0.115889 -0.603019
vn 0.793808 0.150056 -0.589366
vn 0.790213 0.147251 -0.594879
vn 0.753171 0.368160 -0.545152
vn 0.675521 0.459331 -0.576790
vn 0.753171 0.368160 -0.545152
vn 0.790213 0.147251 -0.594879
vn 0.805679 0.085676 -0.586123
vn 0.848187 -0.076090 -0.524203
vn 0.952637 0.086615 -0.291514
vn 0.930287 -0.268177 -0.250294
vn 0.952637 0.086615 -0.291514
vn 0.848187 -0.076090 -0.524203
vn 0.789264 0.115889 -0.603019
vn 0.952637 0.086615 -0.291514
vn 0.790213 0.147251 -0.594879
vn 0.906340 0.312418 -0.284505
vn 0.790213 0.147251 -0.594879
vn 0.952637 0.086615 -0.291514
vn 0.789264 0.115889 -0.603019
vn 0.906340 0.312418 -0.284505
vn 0.675521 0.459331 -0.576790
vn 0.700272 0.706453 -0.102685
vn 0.675521 0.459331 -0.576790
vn 0.906340 0.312418 -0.284505
vn 0.790213 0.147251 -0.594879
vn 0.929530 -0.252645 0.268596
vn 0.930287 -0.268177 -0.250294
vn 0.920875 0.094392 0.378258
vn 0.920875 0.094392 0.378258
vn 0.930287 -0.268177 -0.250294
vn 0.952637 0.086615 -0.291514
vn 0.920875 0.094392 0.378258
vn 0.952637 0.086615 -0.291514
vn 0.854045 0.356481 0.378852
vn 0.854045 0.356481 0.378852
vn 0.952637 0.086615 -0.291514
vn 0.906340 0.312418 -0.284505
vn 0.854045 0.356481 0.378852
vn 0.906340 0.312418 -0.284505
vn 0.578997 0.711976 0.397306
vn 0.578997 0.711976 0.397306
vn 0.906340 0.312418 -0.284505
vn 0.700272 0.706453 -0.102685
vn 0.821037 -0.092880 0.563269
vn 0.929530 -0.252645 0.268596
vn 0.768151 0.144527 0.623743
vn 0.768151 0.144527 0.623743
vn 0.929530 -0.252645 0.268596
vn 0.920875 0.094392 0.378258
vn 0.768151 0.144527 0.623743
vn 0.920875 0.094392 0.378258
vn 0.675035 0.259742 0.690551
vn 0.675035 0.259742 0.690551
vn 0.920875 0.094392 0.378258
vn 0.854045 0.356481 0.378852
vn 0.675035 0.259742 0.690551
vn 0.854045 0.356481 0.378852
vn 0.503575 0.612781 0.609025
vn 0.503575 0.612781 0.609025
vn 0.854045 0.356481 0.378852
vn 0.578997 0.711976 0.397306
vn 0.731622 0.196766 0.652696
vn 0.752950 0.067643 0.654592
vn 0.821037 -0.092880 0.563269
vn 0.731622 0.196766 0.652696
vn 0.821037 -0.092880 0.563269
vn 0.768151 0.144527 0.623743
vn 0.731622 0.196766 0.652696
vn 0.768151 0.144527 0.623743
vn 0.623063 0.310650 0.717836
vn 0.623063 0.310650 0.717836
vn 0.768151 0.144527 0.623743
vn 0.675035 0.259742 0.690551
vn 0.384847 0.482929 0.786557
vn 0.623063 0.310650 0.717836
vn 0.675035 0.259742 0.690551
vn 0.384847 0.482929 0.786557
vn 0.675035 0.259742 0.690551
vn 0.503575 0.612781 0.609025
vn 0.675521 0.459331 -0.576790
vn 0.753171 0.368160 -0.545152
vn 0.492837 0.782528 -0.380475
vn 0.664476 0.453528 -0.593957
vn 0.492837 0.782528 -0.380475
vn 0.753171 0.368160 -0.545152
vn 0.373648 0.610989 -0.697911
vn 0.222819 0.969569 -0.101426
vn 0.664476 0.453528 -0.593957
vn 0.222819 0.969569 -0.101426
vn 0.492837 0.782528 -0.380475
vn 0.664476 0.453528 -0.593957
vn 0.222819 0.969569 -0.101426
vn -0.102563 0.764908 -0.635922
vn -0.158399 0.986068 0.050782
vn -0.102563 0.764908 -0.635922
vn 0.222819 0.969569 -0.101426
vn 0.373648 0.610989 -0.697911
vn -0.158399 0.986068 0.050782
vn -0.433509 0.775006 -0.459822
vn -0.256935 0.966425 -0.002675
vn -0.433509 0.775006 -0.459822
vn -0.158399 0.986068 0.050782
vn -0.102563 0.764908 -0.635922
vn -0.256935 0.966425 -0.002675
vn -0.721909 0.590561 -0.360675
vn -0.632084 0.745512 -0.211379
vn -0.721909 0.590561 -0.360675
vn -0.256935 0.966425 -0.002675
vn -0.433509 0.775006 -0.459822
vn 0.492837 0.782528 -0.380475
vn 0.343197 0.931441 -0.120971
vn 0.675521 0.459331 -0.576790
vn 0.343197 0.931441 -0.120971
vn 0.700272 0.706453 -0.102685
vn 0.675521 0.459331 -0.576790
vn 0.343197 0.931441 -0.120971
vn 0.492837 0.782528 -0.380475
vn -0.043298 0.998890 0.018536
vn -0.043298 0.998890 0.018536
vn 0.492837 0.782528 -0.380475
vn 0.222819 0.969569 -0.101426
vn -0.043298 0.998890 0.018536
vn -0.158399 0.986068 0.050782
vn -0.126053 0.989718 0.067593
vn -0.158399 0.986068 0.050782
vn -0.043298 0.998890 0.018536
vn 0.222819 0.969569 -0.101426
vn -0.126053 0.989718 0.067593
vn -0.256935 0.966425 -0.002675
vn -0.105159 0.994191 -0.022925
vn -0.256935 0.966425 -0.002675
vn -0.126053 0.989718 0.067593
vn -0.158399 0.986068 0.050782
vn -0.105159 0.994191 -0.022925
vn -0.632084 0.745512 -0.211379
vn -0.542684 0.819003 -0.186353
vn -0.632084 0.745512 -0.211379
vn -0.105159 0.994191 -0.022925
vn -0.256935 0.966425 -0.002675
vn 0.578997 0.711976 0.397306
vn 0.343197 0.931441 -0.120971
vn 0.278420 0.907682 0.314000
vn 0.343197 0.931441 -0.120971
vn 0.578997 0.711976 0.397306
vn 0.700272 0.706453 -0.102685
vn 0.278420 0.907682 0.314000
vn -0.043298 0.998890 0.018536
vn -0.049892 0.990688 0.126680
vn -0.043298 0.998890 0.018536
vn 0.278420 0.907682 0.314000
vn 0.343197 0.931441 -0.120971
vn -0.049892 0.990688 0.126680
vn -0.126053 0.989718 0.067593
vn -0.109853 0.993439 0.031809
vn -0.126053 0.989718 0.067593
vn -0.049892 0.990688 0.126680
vn -0.043298 0.998890 0.018536
vn -0.109853 0.993439 0.031809
vn -0.105159 0.994191 -0.022925
vn -0.028432 0.998935 0.036351
vn -0.105159 0.994191 -0.022925
vn -0.109853 0.993439 0.031809
vn -0.126053 0.989718 0.067593
vn -0.028432 0.998935 0.036351
vn -0.542684 0.819003 -0.186353
vn -0.571520 0.820304 0.021576
vn -0.542684 0.819003 -0.186353
vn -0.028432 0.998935 0.036351
vn -0.105159 0.994191 -0.022925
vn 0.503575 0.612781 0.609025
vn 0.278420 0.907682 0.314000
vn 0.309368 0.725166 0.615163
vn 0.278420 0.907682 0.314000
vn 0.503575 0.612781 0.609025
vn 0.578997 0.711976 0.397306
vn 0.309368 0.725166 0.615163
vn -0.049892 0.990688 0.126680
vn 0.120772 0.872446 0.473553
vn -0.049892 0.990688 0.126680
vn 0.309368 0.725166 0.615163
vn 0.278420 0.907682 0.314000
vn 0.120772 0.872446 0.473553
vn -0.109853 0.993439 0.031809
vn -0.064366 0.939188 0.337316
vn -0.109853 0.993439 0.031809
vn 0.120772 0.872446 0.473553
vn -0.049892 0.990688 0.126680
vn -0.064366 0.939188 0.337316
vn -0.028432 0.998935 0.036351
vn -0.089023 0.925490 0.368163
vn -0.028432 0.998935 0.036351
vn -0.064366 0.939188 0.337316
vn -0.109853 0.993439 0.031809
vn -0.089023 0.925490 0.368163
vn -0.571520 0.820304 0.021576
vn -0.569994 0.686085 0.452100
vn -0.571520 0.820304 0.021576
vn -0.089023 0.925490 0.368163
vn -0.028432 0.998935 0.036351
vn 0.309368 0.725166 0.615163
vn 0.384847 0.482929 0.786557
vn 0.503575 0.612781 0.609025
vn 0.384847 0.482929 0.786557
vn 0.309368 0.725166 0.615163
vn 0.320316 0.550487 0.770949
vn 0.309368 0.725166 0.615163
vn 0.120772 0.872446 0.473553
vn 0.258944 0.620633 0.740110
vn 0.309368 0.725166 0.615163
vn 0.258944 0.620633 0.740110
vn 0.320316 0.550487 0.770949
vn 0.258944 0.620633 0.740110
vn -0.064366 0.939188 0.337316
vn -0.006198 0.667009 0.745024
vn -0.064366 0.939188 0.337316
vn 0.258944 0.620633 0.740110
vn 0.120772 0.872446 0.473553
vn -0.006198 0.667009 0.745024
vn -0.064366 0.939188 0.337316
vn -0.252943 0.592644 0.764718
vn -0.252943 0.592644 0.764718
vn -0.064366 0.939188 0.337316
vn -0.089023 0.925490 0.368163
vn -0.252943 0.592644 0.764718
vn -0.089023 0.925490 0.368163
vn -0.354426 0.370204 0.858680
vn -0.354426 0.370204 0.858680
vn -0.089023 0.925490 0.368163
vn -0.569994 0.686085 0.452100
vn -0.632084 0.745512 -0.211379
vn -0.721909 0.590561 -0.360675
vn -0.935648 0.208756 -0.284575
vn -0.935648 0.208756 -0.284575
vn -0.721909 0.590561 -0.360675
vn -0.867990 0.218607 -0.445875
vn -0.935648 0.208756 -0.284575
vn -0.867990 0.218607 -0.445875
vn -0.954543 0.031312 -0.296423
vn -0.954543 0.031312 -0.296423
vn -0.867990 0.218607 -0.445875
vn -0.830630 -0.077936 -0.551344
vn -0.954543 0.031312 -0.296423
vn -0.636076 -0.440636 -0.633441
vn -0.872875 -0.243999 -0.422557
vn -0.636076 -0.440636 -0.633441
vn -0.954543 0.031312 -0.296423
vn -0.830630 -0.077936 -0.551344
vn -0.542684 0.819003 -0.186353
vn -0.632084 0.745512 -0.211379
vn -0.930304 0.268585 -0.249792
vn -0.930304 0.268585 -0.249792
vn -0.632084 0.745512 -0.211379
vn -0.935648 0.208756 -0.284575
vn -0.930304 0.268585 -0.249792
vn -0.935648 0.208756 -0.284575
vn -0.967659 0.040027 -0.249065
vn -0.967659 0.040027 -0.249065
vn -0.935648 0.208756 -0.284575
vn -0.954543 0.031312 -0.296423
vn -0.967659 0.040027 -0.249065
vn -0.872875 -0.243999 -0.422557
vn -0.958118 -0.141914 -0.248737
vn -0.872875 -0.243999 -0.422557
vn -0.967659 0.040027 -0.249065
vn -0.954543 0.031312 -0.296423
vn -0.542684 0.819003 -0.186353
vn -0.975989 0.217397 0.013550
vn -0.571520 0.820304 0.021576
vn -0.975989 0.217397 0.013550
vn -0.542684 0.819003 -0.186353
vn -0.930304 0.268585 -0.249792
vn -0.975989 0.217397 0.013550
vn -0.930304 0.268585 -0.249792
vn -0.997410 0.043548 0.057247
vn -0.997410 0.043548 0.057247
vn -0.930304 0.268585 -0.249792
vn -0.967659 0.040027 -0.249065
vn -0.997410 0.043548 0.057247
vn -0.958118 -0.141914 -0.248737
vn -0.960294 -0.220377 0.171085
vn -0.958118 -0.141914 -0.248737
vn -0.997410 0.043548 0.057247
vn -0.967659 0.040027 -0.249065
vn -0.569994 0.686085 0.452100
vn -0.975989 0.217397 0.013550
vn -0.823410 0.174805 0.539851
vn -0.975989 0.217397 0.013550
vn -0.569994 0.686085 0.452100
vn -0.571520 0.820304 0.021576
vn -0.823410 0.174805 0.539851
vn -0.997410 0.043548 0.057247
vn -0.843621 0.004629 0.536919
vn -0.997410 0.043548 0.057247
vn -0.823410 0.174805 0.539851
vn -0.975989 0.217397 0.013550
vn -0.843621 0.004629 0.536919
vn -0.997410 0.043548 0.057247
vn -0.803847 -0.278087 0.525831
vn -0.803847 -0.278087 0.525831
vn -0.997410 0.043548 0.057247
vn -0.960294 -0.220377 0.171085
vn -0.354426 0.370204 0.858680
vn -0.823410 0.174805 0.539851
vn -0.476346 0.176528 0.861355
vn -0.823410 0.174805 0.539851
vn -0.354426 0.370204 0.858680
vn -0.569994 0.686085 0.452100
vn -0.476346 0.176528 0.861355
vn -0.843621 0.004629 0.536919
vn -0.608494 0.039867 0.792556
vn -0.843621 0.004629 0.536919
vn -0.476346 0.176528 0.861355
vn -0.823410 0.174805 0.539851
vn -0.700011 -0.235480 0.674192
vn -0.608494 0.039867 0.792556
vn -0.843621 0.004629 0.536919
vn -0.700011 -0.235480 0.674192
vn -0.843621 0.004629 0.536919
vn -0.803847 -0.278087 0.525831
s off
g polySurface64 polySurface1
usemtl lambert9SG
f 1//1 8//2 2//3
f 8//4 1//5 7//6
f 2//7 9//8 3//9
f 9//10 2//11 8//12
f 3//13 10//14 4//15
f 10//16 3//17 9//18
f 4//19 11//20 5//21
f 11//22 4//23 10//24
f 6//25 11//26 12//27
f 11//28 6//29 5//30
f 13//31 8//32 7//33
f 8//34 13//35 14//36
f 9//37 14//38 15//39
f 14//40 9//41 8//42
f 9//43 16//44 10//45
f 16//46 9//47 15//48
f 10//49 17//50 11//51
f 17//52 10//53 16//54
f 12//55 11//56 18//57
f 18//58 11//59 17//60
f 19//61 14//62 13//63
f 14//64 19//65 20//66
f 20//67 15//68 14//69
f 15//70 20//71 21//72
f 15//73 22//74 16//75
f 22//76 15//77 21//78
f 16//79 23//80 17//81
f 16//82 22//83 23//84
f 18//85 17//86 24//87
f 24//88 17//89 23//90
f 25//91 32//92 31//93
f 32//94 25//95 26//96
f 32//97 27//98 33//99
f 27//100 32//101 26//102
f 33//103 28//104 34//105
f 28//106 33//107 27//108
f 34//109 29//110 35//111
f 29//112 34//113 28//114
f 35//115 29//116 36//117
f 36//118 29//119 30//120
f 37//121 32//122 38//123
f 32//124 37//125 31//126
f 38//127 33//128 39//129
f 33//130 38//131 32//132
f 39//133 33//134 40//135
f 40//136 33//137 34//138
f 40//139 34//140 41//141
f 41//142 34//143 35//144
f 41//145 35//146 42//147
f 42//148 35//149 36//150
f 43//151 38//152 44//153
f 38//154 43//155 37//156
f 44//157 39//158 45//159
f 39//160 44//161 38//162
f 46//163 45//164 39//165
f 46//166 39//167 40//168
f 46//169 40//170 47//171
f 47//172 40//173 41//174
f 47//175 41//176 48//177
f 48//178 41//179 42//180
f 49//181 12//182 50//183
f 12//184 49//185 6//186
f 50//187 18//188 51//189
f 18//190 50//191 12//192
f 51//193 24//194 52//195
f 24//196 51//197 18//198
f 49//199 62//200 61//201
f 62//202 49//203 50//204
f 62//205 51//206 63//207
f 51//208 62//209 50//210
f 63//211 52//212 64//213
f 52//214 63//215 51//216
f 73//217 61//218 74//219
f 74//220 61//221 62//222
f 74//223 62//224 75//225
f 75//226 62//227 63//228
f 75//229 63//230 76//231
f 76//232 63//233 64//234
f 85//235 73//236 86//237
f 86//238 73//239 74//240
f 86//241 74//242 87//243
f 87//244 74//245 75//246
f 87//247 75//248 88//249
f 88//250 75//251 76//252
f 36//253 30//254 85//255
f 36//256 85//257 86//258
f 36//259 86//260 42//261
f 42//262 86//263 87//264
f 48//265 42//266 87//267
f 48//268 87//269 88//270
f 52//271 24//272 53//273
f 23//274 53//275 24//276
f 22//277 54//278 23//279
f 54//280 53//281 23//282
f 54//283 21//284 55//285
f 21//286 54//287 22//288
f 55//289 20//290 56//291
f 20//292 55//293 21//294
f 56//295 19//296 57//297
f 19//298 56//299 20//300
f 53//301 65//302 52//303
f 65//304 64//305 52//306
f 65//307 53//308 66//309
f 66//310 53//311 54//312
f 66//313 55//314 67//315
f 55//316 66//317 54//318
f 67//319 56//320 68//321
f 56//322 67//323 55//324
f 68//325 57//326 69//327
f 57//328 68//329 56//330
f 76//331 65//332 77//333
f 65//334 76//335 64//336
f 77//337 66//338 78//339
f 66//340 77//341 65//342
f 78//343 67//344 79//345
f 67//346 78//347 66//348
f 79//349 68//350 80//351
f 68//352 79//353 67//354
f 80//355 69//356 81//357
f 69//358 80//359 68//360
f 88//361 77//362 89//363
f 77//364 88//365 76//366
f 89//367 78//368 90//369
f 78//370 89//371 77//372
f 90//373 79//374 91//375
f 79//376 90//377 78//378
f 91//379 80//380 92//381
f 80//382 91//383 79//384
f 92//385 81//386 93//387
f 81//388 92//389 80//390
f 89//391 48//392 88//393
f 48//394 89//395 47//396
f 89//397 90//398 46//399
f 89//400 46//401 47//402
f 46//403 91//404 45//405
f 91//406 46//407 90//408
f 45//409 91//410 44//411
f 44//412 91//413 92//414
f 44//415 92//416 43//417
f 43//418 92//419 93//420
f 57//421 19//422 58//423
f 58//424 19//425 13//426
f 58//427 13//428 59//429
f 59//430 13//431 7//432
f 59//433 1//434 60//435
f 1//436 59//437 7//438
f 69//439 57//440 70//441
f 70//442 57//443 58//444
f 70//445 58//446 71//447
f 71//448 58//449 59//450
f 71//451 60//452 72//453
f 60//454 71//455 59//456
f 69//457 82//458 81//459
f 82//460 69//461 70//462
f 82//463 70//464 83//465
f 83//466 70//467 71//468
f 83//469 72//470 84//471
f 72//472 83//473 71//474
f 93//475 82//476 94//477
f 82//478 93//479 81//480
f 94//481 83//482 95//483
f 83//484 94//485 82//486
f 95//487 83//488 96//489
f 96//490 83//491 84//492
f 43//493 94//494 37//495
f 94//496 43//497 93//498
f 37//499 95//500 31//501
f 95//502 37//503 94//504
f 25//505 31//506 95//507
f 25//508 95//509 96//510
